<svg xmlns="http://www.w3.org/2000/svg" xmlns:xlink="http://www.w3.org/1999/xlink" viewBox="0 0 46.22 46.22"><defs><style>.cls-1{font-size:12px;font-family:CarlMarx-Bold, CarlMarx;font-weight:700;}.cls-1,.cls-2{fill:#1d1d1b;}.cls-2{font-size:10px;font-family:CarlMarx-Regular, CarlMarx;letter-spacing:-0.05em;}.cls-3{fill:url(#Dégradé_sans_nom_44);}.cls-4{fill:#ed6b52;}.cls-5{fill:#4ea9ab;}.cls-6{fill:#fff;}.cls-7{fill:none;stroke-miterlimit:10;stroke-width:0.5px;stroke:url(#Dégradé_sans_nom_54);}</style><linearGradient id="Dégradé_sans_nom_44" x1="15.87" y1="23.33" x2="22.35" y2="23.33" gradientUnits="userSpaceOnUse"><stop offset="0.06" stop-color="#ed6b52"/><stop offset="0.25" stop-color="#c97966"/><stop offset="0.73" stop-color="#719b97"/><stop offset="0.95" stop-color="#4ea9ab"/></linearGradient><linearGradient id="Dégradé_sans_nom_54" y1="23.11" x2="46.22" y2="23.11" gradientTransform="translate(0 46.22) rotate(-90)" gradientUnits="userSpaceOnUse"><stop offset="0.06" stop-color="#ed6b52"/><stop offset="0.95" stop-color="#4ea9ab"/></linearGradient></defs><title>Fichier 9</title><g id="Calque_2" data-name="Calque 2"><g id="Calque_1-2" data-name="Calque 1"><text class="cls-1" transform="translate(4.54 20.14)">MM </text><text class="cls-2" transform="translate(18.75 31.89) scale(0.95 1)">tinéraire</text><path class="cls-3" d="M20.82,11.93a53,53,0,0,1-.11,7.35c-.15,1.13-1.38,1.46-2.3,1.88a6.25,6.25,0,0,0-2.25,1.58,6.44,6.44,0,0,0-1.24,4c-.16,2.66,0,5.34,0,8a1.25,1.25,0,0,0,2.5,0c0-2.62-.16-5.26,0-7.89.07-1.37.21-2.24,1.19-3s2.14-.92,3.07-1.62A3.68,3.68,0,0,0,23.2,19.4a62,62,0,0,0,.12-7.47,1.25,1.25,0,0,0-2.5,0Z"/><circle class="cls-4" cx="16.19" cy="35.33" r="2.66"/><path class="cls-5" d="M22.08,7.12a2.66,2.66,0,0,0,0,5.32h.09a2.66,2.66,0,0,0-.09-5.32Zm.08,4h-.08a1.53,1.53,0,1,1,.08,0Z"/><path class="cls-6" d="M23.45,9.78a1.35,1.35,0,0,1-1.29,1.36h-.08a1.37,1.37,0,1,1,1.37-1.37Z"/><circle class="cls-6" cx="16.23" cy="35.42" r="1.37"/><circle class="cls-7" cx="23.11" cy="23.11" r="22.86"/></g></g></svg>